<?xml version="1.0" encoding="UTF-8" standalone="no"?><!DOCTYPE svg PUBLIC "-//W3C//DTD SVG 1.1//EN" "http://www.w3.org/Graphics/SVG/1.1/DTD/svg11.dtd"><svg width="100%" height="100%" viewBox="0 0 105 100" version="1.1" xmlns="http://www.w3.org/2000/svg" xmlns:xlink="http://www.w3.org/1999/xlink" xml:space="preserve" xmlns:serif="http://www.serif.com/" style="fill-rule:evenodd;clip-rule:evenodd;stroke-linejoin:round;stroke-miterlimit:2;"><rect id="LinkedIn-dark" serif:id="LinkedIn dark" x="3.196" y="0" width="100" height="100" style="fill:none;"/><path d="M53.196,0c-27.613,0 -50,22.388 -50,50c0,27.612 22.387,50 50,50c27.612,0 50,-22.388 50,-50c0,-27.612 -22.388,-50 -50,-50Zm-8.334,66.667l-8.333,0l0,-25l8.333,0l0,25Zm-4.166,-28.713c-2.529,0 -4.584,-2.066 -4.584,-4.621c0,-2.55 2.05,-4.62 4.584,-4.62c2.533,0 4.583,2.07 4.583,4.62c0,2.555 -2.054,4.621 -4.583,4.621Zm33.333,28.713l-8.325,0l0,-11.921c0,-7.838 -8.342,-7.175 -8.342,0l0,11.921l-8.333,0l0,-25l8.333,0l0,4.554c3.634,-6.733 16.667,-7.234 16.667,6.45l0,13.996Z" style="fill:#37374a;fill-rule:nonzero;"/></svg>