<?xml version="1.0" encoding="UTF-8" standalone="no"?><!DOCTYPE svg PUBLIC "-//W3C//DTD SVG 1.1//EN" "http://www.w3.org/Graphics/SVG/1.1/DTD/svg11.dtd"><svg width="100%" height="100%" viewBox="0 0 625 475" version="1.1" xmlns="http://www.w3.org/2000/svg" xmlns:xlink="http://www.w3.org/1999/xlink" xml:space="preserve" xmlns:serif="http://www.serif.com/" style="fill-rule:evenodd;clip-rule:evenodd;stroke-linejoin:round;stroke-miterlimit:2;"><rect id="Treeline-short" serif:id="Treeline short" x="-4.167" y="0" width="630.302" height="476.076" style="fill:none;"/><clipPath id="_clip1"><rect x="-4.167" y="0" width="630.302" height="476.076"/></clipPath><g clip-path="url(#_clip1)"><rect x="-3.556" y="164.409" width="630.302" height="313.065" style="fill:#37374a;"/><g><path id="Tree" d="M63.092,89.291l-8.31,0l16.715,25.51l-8.91,0l16.053,24.499l-9.352,0l17.757,26.796l-90.601,0l17.758,-26.796l-9.352,0l16.052,-24.499l-8.909,0l16.715,-25.51l-8.31,0c7.116,-8.236 14.231,-16.472 21.347,-24.708l21.347,24.708Z" style="fill:#37374a;"/><path id="Tree1" serif:id="Tree" d="M186.799,49.328l-12.651,0l25.448,38.839l-13.565,0l24.44,37.299l-14.238,0l27.035,40.797l-137.939,0l27.035,-40.797l-14.238,0l24.44,-37.299l-13.565,0l25.448,-38.839l-12.651,0c10.833,-12.539 21.667,-25.078 32.501,-37.617l32.5,37.617Z" style="fill:#37374a;"/><path id="Tree2" serif:id="Tree" d="M533.106,67.008l-12.652,0l25.449,38.838l-13.565,0l24.44,37.299l-14.238,0l27.035,40.797l-137.94,0l27.036,-40.797l-14.238,0l24.44,-37.299l-13.565,0l25.448,-38.838l-12.651,0c10.833,-12.54 21.667,-25.079 32.5,-37.618l32.501,37.618Z" style="fill:#37374a;"/><path id="Tree3" serif:id="Tree" d="M603.409,41.485l-8.096,0l16.285,41.388l-8.681,0l15.64,39.748l-9.111,0l17.301,43.475l-88.272,0l17.301,-43.475l-9.112,0l15.64,-39.748l-8.68,0l16.285,-41.388l-8.096,0c6.932,-13.363 13.865,-26.725 20.798,-40.087l20.798,40.087Z" style="fill:#37374a;"/><path id="Tree4" serif:id="Tree" d="M364.468,114.808l-6.425,0l12.923,19.723l-6.888,0l12.411,18.942l-7.23,0l13.729,20.718l-70.049,0l13.729,-20.718l-7.231,0l12.412,-18.942l-6.889,0l12.923,-19.723l-6.424,0c5.501,-6.367 11.003,-12.735 16.504,-19.103l16.505,19.103Z" style="fill:#37374a;"/><path id="Tree5" serif:id="Tree" d="M435.605,91.898l-8.309,0l16.715,25.509l-8.91,0l16.053,24.499l-9.352,0l17.757,26.796l-90.601,0l17.757,-26.796l-9.352,0l16.053,-24.499l-8.91,0l16.715,-25.509l-8.31,0c7.116,-8.236 14.232,-16.472 21.347,-24.708l21.347,24.708Z" style="fill:#37374a;"/><path id="Tree6" serif:id="Tree" d="M295.862,68.478l-10.58,0l21.281,32.478l-11.343,0l20.437,31.191l-11.906,0l22.608,34.116l-115.35,0l22.608,-34.116l-11.907,0l20.438,-31.191l-11.344,0l21.281,-32.478l-10.58,0c9.06,-10.486 18.119,-20.971 27.179,-31.457l27.178,31.457Z" style="fill:#37374a;"/></g></g></svg>