<?xml version="1.0" encoding="UTF-8" standalone="no"?><!DOCTYPE svg PUBLIC "-//W3C//DTD SVG 1.1//EN" "http://www.w3.org/Graphics/SVG/1.1/DTD/svg11.dtd"><svg width="100%" height="100%" viewBox="0 0 325 288" version="1.1" xmlns="http://www.w3.org/2000/svg" xmlns:xlink="http://www.w3.org/1999/xlink" xml:space="preserve" xmlns:serif="http://www.serif.com/" style="fill-rule:evenodd;clip-rule:evenodd;stroke-linejoin:round;stroke-miterlimit:2;"><rect id="Tree-icon-outlined" serif:id="Tree icon outlined" x="2.287" y="0.61" width="321.598" height="285.369" style="fill:none;"/><path d="M104.493,122.403l-16.523,0c-3.924,0 -7.516,-2.205 -9.29,-5.706c-1.775,-3.5 -1.432,-7.701 0.887,-10.866l73.36,-100.134c1.962,-2.678 5.083,-4.261 8.403,-4.261c3.32,0 6.441,1.583 8.403,4.261l73.36,100.134c2.32,3.165 2.663,7.366 0.888,10.866c-1.775,3.501 -5.366,5.706 -9.291,5.706l-16.522,0l39.597,54.049c3.518,5.172 2.139,12.392 -3.567,15.383c-1.518,0.795 -3.135,1.13 -4.836,1.19l-31.194,0l54.269,74.076c2.32,3.166 2.663,7.366 0.888,10.867c-1.775,3.5 -5.366,5.706 -9.291,5.706l-205.408,0c-3.924,0 -7.516,-2.206 -9.291,-5.706c-1.774,-3.501 -1.431,-7.701 0.888,-10.867l54.27,-74.076l-31.195,0c-1.7,-0.06 -3.317,-0.395 -4.835,-1.19c-5.706,-2.991 -7.085,-10.211 -3.568,-15.383l39.598,-54.049Zm93.131,-20.833l16.522,0l-52.816,-72.091l-52.815,72.091l16.522,0l0.732,0.026c6.212,0.654 10.827,6.362 9.439,12.64c-0.317,1.434 -0.947,2.7 -1.768,3.907l-39.597,54.049l31.194,0l0.732,0.025c6.212,0.654 10.827,6.362 9.439,12.641c-0.317,1.434 -0.947,2.7 -1.768,3.907l-54.269,74.075l164.319,0l-54.269,-74.075c-0.821,-1.207 -1.451,-2.473 -1.768,-3.907c-1.389,-6.279 3.227,-11.987 9.439,-12.641l0.732,-0.025l31.194,0l-39.597,-54.049c-0.821,-1.207 -1.451,-2.473 -1.768,-3.907c-1.389,-6.278 3.227,-11.986 9.439,-12.64l0.732,-0.026Z" style="fill:#37374a;"/></svg>