<svg width="75" height="75" viewBox="0 0 75 75" fill="none" xmlns="http://www.w3.org/2000/svg">
<path fill-rule="evenodd" clip-rule="evenodd" d="M37.5 75C58.2107 75 75 58.2107 75 37.5C75 16.7893 58.2107 0 37.5 0C16.7893 0 0 16.7893 0 37.5C0 58.2107 16.7893 75 37.5 75ZM35.7034 50.9148L21.073 36.2407C20.5915 35.755 20.3213 35.0979 20.3213 34.413C20.3213 33.728 20.5915 33.0709 21.073 32.5852C21.3133 32.3422 21.5991 32.1493 21.9141 32.0177C22.2291 31.8861 22.567 31.8183 22.9082 31.8183C23.2495 31.8183 23.5873 31.8861 23.9023 32.0177C24.2173 32.1493 24.5032 32.3422 24.7435 32.5852L34.9537 42.8259V12.7778C34.9537 12.0902 35.2261 11.4307 35.7108 10.9445C36.1956 10.4583 36.8531 10.1852 37.5386 10.1852C38.2242 10.1852 38.8816 10.4583 39.3664 10.9445C39.8512 11.4307 40.1235 12.0902 40.1235 12.7778V42.8259L50.463 32.5852C50.6798 32.2678 50.9643 32.0027 51.296 31.8093C51.6276 31.6158 51.998 31.4989 52.3803 31.4668C52.7625 31.4348 53.1471 31.4885 53.5062 31.6241C53.8652 31.7596 54.1896 31.9736 54.456 32.2506C54.7223 32.5275 54.9238 32.8604 55.0459 33.2252C55.168 33.5899 55.2077 33.9774 55.1619 34.3594C55.1162 34.7414 54.9863 35.1084 54.7816 35.4338C54.5769 35.7593 54.3025 36.0349 53.9784 36.2407L39.3739 50.9148C39.1336 51.1578 38.8477 51.3507 38.5327 51.4823C38.2177 51.6139 37.8799 51.6817 37.5386 51.6817C37.1974 51.6817 36.8595 51.6139 36.5445 51.4823C36.2295 51.3507 35.9437 51.1578 35.7034 50.9148ZM22.0293 54.2593H53.0478C53.7334 54.2593 54.3909 54.5324 54.8756 55.0186C55.3604 55.5048 55.6327 56.1643 55.6327 56.8519C55.6327 57.5395 55.3604 58.1989 54.8756 58.6851C54.3909 59.1713 53.7334 59.4444 53.0478 59.4444H22.0293C21.3438 59.4444 20.6863 59.1713 20.2015 58.6851C19.7168 58.1989 19.4444 57.5395 19.4444 56.8519C19.4444 56.1643 19.7168 55.5048 20.2015 55.0186C20.6863 54.5324 21.3438 54.2593 22.0293 54.2593Z" fill="#37374A"/>
</svg>
