<?xml version="1.0" encoding="UTF-8" standalone="no"?><!DOCTYPE svg PUBLIC "-//W3C//DTD SVG 1.1//EN" "http://www.w3.org/Graphics/SVG/1.1/DTD/svg11.dtd"><svg width="100%" height="100%" viewBox="0 0 421 417" version="1.1" xmlns="http://www.w3.org/2000/svg" xmlns:xlink="http://www.w3.org/1999/xlink" xml:space="preserve" xmlns:serif="http://www.serif.com/" style="fill-rule:evenodd;clip-rule:evenodd;stroke-linejoin:round;stroke-miterlimit:2;"><rect id="Email-dark" serif:id="Email dark" x="2.579" y="0" width="416.667" height="416.667" style="fill:none;"/><path d="M210.912,0c-114.288,0 -208.333,94.045 -208.333,208.333c0,114.289 94.045,208.334 208.333,208.334c114.288,0 208.333,-94.045 208.333,-208.334c0,-114.288 -94.045,-208.333 -208.333,-208.333Zm93.125,136.25l-93.125,77.583l-93.125,-77.583l186.25,0Zm11.042,135.208c0.017,0.219 0.026,0.438 0.026,0.658c0,4.571 -3.762,8.333 -8.334,8.333c-0.245,0 -0.49,-0.011 -0.734,-0.032l-190.25,0c-0.32,0.038 -0.642,0.057 -0.964,0.057c-4.435,0 -8.084,-3.649 -8.084,-8.083c0,-0.103 0.002,-0.205 0.006,-0.308l0,-124.083l20.834,17.25l77.5,64.583c1.519,1.613 3.638,2.529 5.854,2.529c2.215,0 4.335,-0.916 5.854,-2.529l95.375,-79.5l2.917,-2.25l0,123.375Z" style="fill:#37374a;fill-rule:nonzero;"/></svg>