<?xml version="1.0" encoding="UTF-8" standalone="no"?><!DOCTYPE svg PUBLIC "-//W3C//DTD SVG 1.1//EN" "http://www.w3.org/Graphics/SVG/1.1/DTD/svg11.dtd"><svg width="100%" height="100%" viewBox="0 0 105 100" version="1.1" xmlns="http://www.w3.org/2000/svg" xmlns:xlink="http://www.w3.org/1999/xlink" xml:space="preserve" xmlns:serif="http://www.serif.com/" style="fill-rule:evenodd;clip-rule:evenodd;stroke-linejoin:round;stroke-miterlimit:2;"><rect id="Github-dark" serif:id="Github dark" x="1.588" y="0" width="100" height="100" style="fill:none;"/><path d="M51.588,1.233c-27.608,0 -50,22.387 -50,50c0,22.092 14.325,40.833 34.196,47.446c2.496,0.462 3.304,-1.088 3.304,-2.404l0,-9.309c-13.908,3.025 -16.804,-5.9 -16.804,-5.9c-2.275,-5.779 -5.554,-7.316 -5.554,-7.316c-4.538,-3.105 0.346,-3.038 0.346,-3.038c5.021,0.35 7.662,5.154 7.662,5.154c4.459,7.642 11.696,5.434 14.55,4.154c0.446,-3.229 1.742,-5.437 3.175,-6.683c-11.104,-1.271 -22.779,-5.558 -22.779,-24.712c0,-5.463 1.954,-9.921 5.15,-13.421c-0.517,-1.263 -2.229,-6.35 0.488,-13.234c0,0 4.2,-1.341 13.754,5.125c3.987,-1.108 8.262,-1.662 12.512,-1.683c4.25,0.021 8.529,0.575 12.525,1.683c9.546,-6.466 13.738,-5.125 13.738,-5.125c2.721,6.888 1.008,11.975 0.491,13.234c3.209,3.5 5.146,7.962 5.146,13.421c0,19.204 -11.696,23.433 -22.829,24.67c1.792,1.55 3.429,4.592 3.429,9.259l0,13.721c0,1.329 0.8,2.891 3.338,2.4c19.854,-6.621 34.162,-25.359 34.162,-47.442c0,-27.613 -22.387,-50 -50,-50Z" style="fill:#37374a;fill-rule:nonzero;"/></svg>