<?xml version="1.0" encoding="UTF-8" standalone="no"?><!DOCTYPE svg PUBLIC "-//W3C//DTD SVG 1.1//EN" "http://www.w3.org/Graphics/SVG/1.1/DTD/svg11.dtd"><svg width="100%" height="100%" viewBox="0 0 5938 471" version="1.1" xmlns="http://www.w3.org/2000/svg" xmlns:xlink="http://www.w3.org/1999/xlink" xml:space="preserve" xmlns:serif="http://www.serif.com/" style="fill-rule:evenodd;clip-rule:evenodd;stroke-linejoin:round;stroke-miterlimit:2;"><rect id="Artboard2" x="-3.035" y="0.812" width="5942.2" height="474.047" style="fill:none;"/><clipPath id="_clip1"><rect x="-3.035" y="0.812" width="5942.2" height="474.047"/></clipPath><g clip-path="url(#_clip1)"><g id="Treeline"><rect x="-4.815" y="161.795" width="5946.78" height="313.065" style="fill:#37374a;"/><g><path id="Tree" d="M421.101,47.54l-13.619,0l27.394,40.016l-14.602,0l26.309,38.431l-15.327,0l29.103,42.034l-148.488,0l29.103,-42.034l-15.327,0l26.309,-38.431l-14.602,0l27.394,-40.016l-13.619,0c11.662,-12.92 23.324,-25.839 34.986,-38.759l34.986,38.759Z" style="fill:#37374a;"/><path id="Tree1" serif:id="Tree" d="M765.508,66.422l-12.651,0l25.448,38.839l-13.564,0l24.439,37.299l-14.238,0l27.036,40.797l-137.94,0l27.035,-40.797l-14.238,0l24.44,-37.299l-13.564,0l25.448,-38.839l-12.652,0c10.834,-12.539 21.667,-25.078 32.501,-37.617l32.5,37.617Z" style="fill:#37374a;"/><path id="Tree2" serif:id="Tree" d="M836.575,41.119l-8.192,0l16.477,41.615l-8.783,0l15.824,39.967l-9.219,0l17.505,43.713l-89.31,0l17.504,-43.713l-9.218,0l15.824,-39.967l-8.783,0l16.477,-41.615l-8.192,0c7.015,-13.435 14.029,-26.871 21.043,-40.307l21.043,40.307Z" style="fill:#37374a;"/><path id="Tree3" serif:id="Tree" d="M596.87,114.223l-6.424,0l12.923,19.723l-6.889,0l12.412,18.942l-7.231,0l13.729,20.717l-70.049,0l13.729,-20.717l-7.23,0l12.411,-18.942l-6.888,0l12.923,-19.723l-6.425,0c5.502,-6.368 11.003,-12.735 16.505,-19.103l16.504,19.103Z" style="fill:#37374a;"/><path id="Tree4" serif:id="Tree" d="M668.008,91.312l-8.31,0l16.715,25.51l-8.909,0l16.052,24.499l-9.352,0l17.758,26.796l-90.602,0l17.758,-26.796l-9.352,0l16.052,-24.499l-8.909,0l16.715,-25.51l-8.31,0c7.116,-8.236 14.231,-16.472 21.347,-24.708l21.347,24.708Z" style="fill:#37374a;"/><path id="Tree5" serif:id="Tree" d="M926.834,89.609l-8.309,0l16.714,25.51l-8.909,0l16.052,24.499l-9.351,0l17.757,26.796l-90.601,0l17.757,-26.796l-9.352,0l16.053,-24.499l-8.91,0l16.715,-25.51l-8.31,0c7.116,-8.236 14.232,-16.472 21.347,-24.707l21.347,24.707Z" style="fill:#37374a;"/><path id="Tree6" serif:id="Tree" d="M528.264,67.893l-10.579,0l21.28,32.478l-11.343,0l20.438,31.191l-11.907,0l22.608,34.115l-115.35,0l22.608,-34.115l-11.906,0l20.437,-31.191l-11.343,0l21.281,-32.478l-10.58,0c9.059,-10.486 18.119,-20.972 27.178,-31.457l27.178,31.457Z" style="fill:#37374a;"/><path id="Tree7" serif:id="Tree" d="M1052.26,48.743l-12.651,0l25.448,38.838l-13.565,0l24.44,37.3l-14.238,0l27.036,40.796l-137.94,0l27.035,-40.796l-14.238,0l24.44,-37.3l-13.565,0l25.449,-38.838l-12.652,0c10.834,-12.539 21.667,-25.079 32.501,-37.618l32.5,37.618Z" style="fill:#37374a;"/><path id="Tree8" serif:id="Tree" d="M1398.57,66.422l-12.651,0l25.448,38.839l-13.565,0l24.44,37.299l-14.238,0l27.035,40.797l-137.939,0l27.035,-40.797l-14.238,0l24.44,-37.299l-13.565,0l25.448,-38.839l-12.651,0c10.833,-12.539 21.667,-25.078 32.5,-37.617l32.501,37.617Z" style="fill:#37374a;"/><path id="Tree9" serif:id="Tree" d="M1469.63,41.119l-8.191,0l16.476,41.615l-8.782,0l15.824,39.967l-9.219,0l17.504,43.713l-89.309,0l17.504,-43.713l-9.218,0l15.823,-39.967l-8.782,0l16.476,-41.615l-8.191,0c7.014,-13.435 14.028,-26.871 21.043,-40.307l21.042,40.307Z" style="fill:#37374a;"/><path id="Tree10" serif:id="Tree" d="M1229.93,114.223l-6.425,0l12.924,19.723l-6.889,0l12.411,18.942l-7.23,0l13.729,20.717l-70.049,0l13.729,-20.717l-7.23,0l12.411,-18.942l-6.889,0l12.924,-19.723l-6.425,0c5.501,-6.368 11.003,-12.735 16.504,-19.103l16.505,19.103Z" style="fill:#37374a;"/><path id="Tree11" serif:id="Tree" d="M1301.07,91.312l-8.31,0l16.715,25.51l-8.91,0l16.053,24.499l-9.352,0l17.757,26.796l-90.601,0l17.757,-26.796l-9.351,0l16.052,-24.499l-8.909,0l16.714,-25.51l-8.309,0c7.115,-8.236 14.231,-16.472 21.347,-24.708l21.347,24.708Z" style="fill:#37374a;"/><path id="Tree12" serif:id="Tree" d="M1559.89,89.609l-8.31,0l16.715,25.51l-8.909,0l16.052,24.499l-9.352,0l17.758,26.796l-90.602,0l17.758,-26.796l-9.352,0l16.052,-24.499l-8.909,0l16.715,-25.51l-8.31,0c7.116,-8.236 14.231,-16.472 21.347,-24.707l21.347,24.707Z" style="fill:#37374a;"/><path id="Tree13" serif:id="Tree" d="M1161.32,67.893l-10.58,0l21.281,32.478l-11.343,0l20.437,31.191l-11.906,0l22.608,34.115l-115.35,0l22.608,-34.115l-11.907,0l20.438,-31.191l-11.343,0l21.28,-32.478l-10.579,0c9.059,-10.486 18.118,-20.972 27.178,-31.457l27.178,31.457Z" style="fill:#37374a;"/><path id="Tree14" serif:id="Tree" d="M1685.32,48.743l-12.651,0l25.448,38.838l-13.565,0l24.44,37.3l-14.238,0l27.035,40.796l-137.939,0l27.035,-40.796l-14.238,0l24.44,-37.3l-13.565,0l25.448,-38.838l-12.651,0c10.833,-12.539 21.667,-25.079 32.5,-37.618l32.501,37.618Z" style="fill:#37374a;"/><path id="Tree15" serif:id="Tree" d="M2031.62,66.422l-12.652,0l25.448,38.839l-13.564,0l24.44,37.299l-14.239,0l27.036,40.797l-137.94,0l27.036,-40.797l-14.238,0l24.439,-37.299l-13.564,0l25.448,-38.839l-12.652,0c10.834,-12.539 21.668,-25.078 32.501,-37.617l32.501,37.617Z" style="fill:#37374a;"/><path id="Tree16" serif:id="Tree" d="M2102.69,41.119l-8.191,0l16.476,41.615l-8.782,0l15.823,39.967l-9.218,0l17.504,43.713l-89.309,0l17.504,-43.713l-9.219,0l15.824,-39.967l-8.783,0l16.477,-41.615l-8.191,0c7.014,-13.435 14.028,-26.871 21.042,-40.307l21.043,40.307Z" style="fill:#37374a;"/><path id="Tree17" serif:id="Tree" d="M1862.98,114.223l-6.425,0l12.923,19.723l-6.888,0l12.411,18.942l-7.231,0l13.73,20.717l-70.05,0l13.73,-20.717l-7.231,0l12.411,-18.942l-6.888,0l12.923,-19.723l-6.425,0c5.502,-6.368 11.004,-12.735 16.505,-19.103l16.505,19.103Z" style="fill:#37374a;"/><path id="Tree18" serif:id="Tree" d="M1934.12,91.312l-8.309,0l16.714,25.51l-8.909,0l16.052,24.499l-9.351,0l17.757,26.796l-90.601,0l17.757,-26.796l-9.352,0l16.053,-24.499l-8.91,0l16.715,-25.51l-8.31,0c7.116,-8.236 14.232,-16.472 21.347,-24.708l21.347,24.708Z" style="fill:#37374a;"/><path id="Tree19" serif:id="Tree" d="M2192.95,89.609l-8.31,0l16.715,25.51l-8.91,0l16.053,24.499l-9.352,0l17.757,26.796l-90.601,0l17.757,-26.796l-9.352,0l16.053,-24.499l-8.909,0l16.714,-25.51l-8.309,0c7.115,-8.236 14.231,-16.472 21.347,-24.707l21.347,24.707Z" style="fill:#37374a;"/><path id="Tree20" serif:id="Tree" d="M1794.38,67.893l-10.58,0l21.281,32.478l-11.344,0l20.438,31.191l-11.907,0l22.608,34.115l-115.349,0l22.608,-34.115l-11.907,0l20.438,-31.191l-11.344,0l21.281,-32.478l-10.58,0c9.06,-10.486 18.119,-20.972 27.179,-31.457l27.178,31.457Z" style="fill:#37374a;"/><path id="Tree21" serif:id="Tree" d="M2318.37,48.743l-12.652,0l25.448,38.838l-13.564,0l24.44,37.3l-14.239,0l27.036,40.796l-137.94,0l27.036,-40.796l-14.239,0l24.44,-37.3l-13.564,0l25.448,-38.838l-12.652,0c10.834,-12.539 21.668,-25.079 32.501,-37.618l32.501,37.618Z" style="fill:#37374a;"/><path id="Tree22" serif:id="Tree" d="M2664.68,66.422l-12.651,0l25.448,38.839l-13.565,0l24.44,37.299l-14.238,0l27.036,40.797l-137.94,0l27.035,-40.797l-14.238,0l24.44,-37.299l-13.565,0l25.449,-38.839l-12.652,0c10.834,-12.539 21.667,-25.078 32.501,-37.617l32.5,37.617Z" style="fill:#37374a;"/><path id="Tree23" serif:id="Tree" d="M2735.74,41.119l-8.192,0l16.477,41.615l-8.783,0l15.824,39.967l-9.219,0l17.505,43.713l-89.31,0l17.504,-43.713l-9.218,0l15.824,-39.967l-8.783,0l16.477,-41.615l-8.192,0c7.015,-13.435 14.029,-26.871 21.043,-40.307l21.043,40.307Z" style="fill:#37374a;"/><path id="Tree24" serif:id="Tree" d="M2496.04,114.223l-6.424,0l12.923,19.723l-6.889,0l12.412,18.942l-7.231,0l13.729,20.717l-70.049,0l13.729,-20.717l-7.23,0l12.411,-18.942l-6.888,0l12.923,-19.723l-6.425,0c5.502,-6.368 11.003,-12.735 16.505,-19.103l16.504,19.103Z" style="fill:#37374a;"/><path id="Tree25" serif:id="Tree" d="M2567.18,91.312l-8.31,0l16.715,25.51l-8.909,0l16.052,24.499l-9.352,0l17.758,26.796l-90.602,0l17.758,-26.796l-9.352,0l16.052,-24.499l-8.909,0l16.715,-25.51l-8.31,0c7.116,-8.236 14.231,-16.472 21.347,-24.708l21.347,24.708Z" style="fill:#37374a;"/><path id="Tree26" serif:id="Tree" d="M2826,89.609l-8.31,0l16.715,25.51l-8.909,0l16.052,24.499l-9.352,0l17.758,26.796l-90.601,0l17.757,-26.796l-9.352,0l16.053,-24.499l-8.91,0l16.715,-25.51l-8.31,0c7.116,-8.236 14.232,-16.472 21.347,-24.707l21.347,24.707Z" style="fill:#37374a;"/><path id="Tree27" serif:id="Tree" d="M2427.43,67.893l-10.579,0l21.28,32.478l-11.343,0l20.438,31.191l-11.907,0l22.608,34.115l-115.35,0l22.608,-34.115l-11.906,0l20.437,-31.191l-11.343,0l21.281,-32.478l-10.58,0c9.059,-10.486 18.119,-20.972 27.178,-31.457l27.178,31.457Z" style="fill:#37374a;"/><path id="Tree28" serif:id="Tree" d="M2951.43,48.743l-12.651,0l25.448,38.838l-13.565,0l24.44,37.3l-14.238,0l27.036,40.796l-137.94,0l27.035,-40.796l-14.238,0l24.44,-37.3l-13.565,0l25.449,-38.838l-12.652,0c10.834,-12.539 21.667,-25.079 32.501,-37.618l32.5,37.618Z" style="fill:#37374a;"/><path id="Tree29" serif:id="Tree" d="M3297.74,66.422l-12.651,0l25.448,38.839l-13.565,0l24.44,37.299l-14.238,0l27.035,40.797l-137.939,0l27.035,-40.797l-14.238,0l24.44,-37.299l-13.565,0l25.448,-38.839l-12.651,0c10.833,-12.539 21.667,-25.078 32.5,-37.617l32.501,37.617Z" style="fill:#37374a;"/><path id="Tree30" serif:id="Tree" d="M3368.8,41.119l-8.191,0l16.476,41.615l-8.782,0l15.824,39.967l-9.219,0l17.504,43.713l-89.309,0l17.504,-43.713l-9.219,0l15.824,-39.967l-8.782,0l16.476,-41.615l-8.191,0c7.014,-13.435 14.028,-26.871 21.043,-40.307l21.042,40.307Z" style="fill:#37374a;"/><path id="Tree31" serif:id="Tree" d="M3129.1,114.223l-6.425,0l12.924,19.723l-6.889,0l12.411,18.942l-7.23,0l13.729,20.717l-70.049,0l13.729,-20.717l-7.23,0l12.411,-18.942l-6.889,0l12.924,-19.723l-6.425,0c5.501,-6.368 11.003,-12.735 16.504,-19.103l16.505,19.103Z" style="fill:#37374a;"/><path id="Tree32" serif:id="Tree" d="M3200.24,91.312l-8.31,0l16.715,25.51l-8.91,0l16.053,24.499l-9.352,0l17.757,26.796l-90.601,0l17.757,-26.796l-9.351,0l16.052,-24.499l-8.909,0l16.714,-25.51l-8.309,0c7.115,-8.236 14.231,-16.472 21.347,-24.708l21.347,24.708Z" style="fill:#37374a;"/><path id="Tree33" serif:id="Tree" d="M3459.06,89.609l-8.31,0l16.715,25.51l-8.91,0l16.053,24.499l-9.352,0l17.757,26.796l-90.601,0l17.758,-26.796l-9.352,0l16.052,-24.499l-8.909,0l16.715,-25.51l-8.31,0c7.116,-8.236 14.231,-16.472 21.347,-24.707l21.347,24.707Z" style="fill:#37374a;"/><path id="Tree34" serif:id="Tree" d="M3060.49,67.893l-10.58,0l21.281,32.478l-11.343,0l20.437,31.191l-11.906,0l22.608,34.115l-115.35,0l22.608,-34.115l-11.907,0l20.438,-31.191l-11.343,0l21.28,-32.478l-10.579,0c9.059,-10.486 18.118,-20.972 27.178,-31.457l27.178,31.457Z" style="fill:#37374a;"/><path id="Tree35" serif:id="Tree" d="M3584.49,48.743l-12.652,0l25.449,38.838l-13.565,0l24.44,37.3l-14.238,0l27.035,40.796l-137.94,0l27.036,-40.796l-14.238,0l24.44,-37.3l-13.565,0l25.448,-38.838l-12.651,0c10.833,-12.539 21.667,-25.079 32.5,-37.618l32.501,37.618Z" style="fill:#37374a;"/><path id="Tree36" serif:id="Tree" d="M3930.79,66.422l-12.652,0l25.448,38.839l-13.564,0l24.44,37.299l-14.239,0l27.036,40.797l-137.94,0l27.036,-40.797l-14.239,0l24.44,-37.299l-13.564,0l25.448,-38.839l-12.652,0c10.834,-12.539 21.668,-25.078 32.501,-37.617l32.501,37.617Z" style="fill:#37374a;"/><path id="Tree37" serif:id="Tree" d="M4001.86,41.119l-8.191,0l16.476,41.615l-8.782,0l15.823,39.967l-9.218,0l17.504,43.713l-89.31,0l17.505,-43.713l-9.219,0l15.824,-39.967l-8.783,0l16.477,-41.615l-8.191,0c7.014,-13.435 14.028,-26.871 21.042,-40.307l21.043,40.307Z" style="fill:#37374a;"/><path id="Tree38" serif:id="Tree" d="M3762.15,114.223l-6.425,0l12.923,19.723l-6.888,0l12.411,18.942l-7.231,0l13.73,20.717l-70.05,0l13.73,-20.717l-7.231,0l12.411,-18.942l-6.888,0l12.923,-19.723l-6.425,0c5.502,-6.368 11.003,-12.735 16.505,-19.103l16.505,19.103Z" style="fill:#37374a;"/><path id="Tree39" serif:id="Tree" d="M3833.29,91.312l-8.309,0l16.714,25.51l-8.909,0l16.052,24.499l-9.352,0l17.758,26.796l-90.601,0l17.757,-26.796l-9.352,0l16.053,-24.499l-8.91,0l16.715,-25.51l-8.31,0c7.116,-8.236 14.232,-16.472 21.347,-24.708l21.347,24.708Z" style="fill:#37374a;"/><path id="Tree40" serif:id="Tree" d="M4092.12,89.609l-8.309,0l16.715,25.51l-8.91,0l16.053,24.499l-9.352,0l17.757,26.796l-90.601,0l17.757,-26.796l-9.352,0l16.053,-24.499l-8.91,0l16.715,-25.51l-8.309,0c7.115,-8.236 14.231,-16.472 21.347,-24.707l21.346,24.707Z" style="fill:#37374a;"/><path id="Tree41" serif:id="Tree" d="M3693.55,67.893l-10.58,0l21.281,32.478l-11.344,0l20.438,31.191l-11.907,0l22.608,34.115l-115.35,0l22.608,-34.115l-11.906,0l20.437,-31.191l-11.343,0l21.281,-32.478l-10.58,0c9.06,-10.486 18.119,-20.972 27.178,-31.457l27.179,31.457Z" style="fill:#37374a;"/><path id="Tree42" serif:id="Tree" d="M4217.54,48.743l-12.652,0l25.448,38.838l-13.564,0l24.44,37.3l-14.239,0l27.036,40.796l-137.94,0l27.036,-40.796l-14.239,0l24.44,-37.3l-13.564,0l25.448,-38.838l-12.652,0c10.834,-12.539 21.667,-25.079 32.501,-37.618l32.501,37.618Z" style="fill:#37374a;"/><path id="Tree43" serif:id="Tree" d="M4563.85,66.422l-12.651,0l25.448,38.839l-13.565,0l24.44,37.299l-14.238,0l27.036,40.797l-137.94,0l27.035,-40.797l-14.238,0l24.44,-37.299l-13.565,0l25.449,-38.839l-12.652,0c10.834,-12.539 21.667,-25.078 32.501,-37.617l32.5,37.617Z" style="fill:#37374a;"/><path id="Tree44" serif:id="Tree" d="M4634.91,41.119l-8.191,0l16.477,41.615l-8.783,0l15.824,39.967l-9.219,0l17.505,43.713l-89.31,0l17.504,-43.713l-9.218,0l15.823,-39.967l-8.782,0l16.477,-41.615l-8.192,0c7.014,-13.435 14.029,-26.871 21.043,-40.307l21.042,40.307Z" style="fill:#37374a;"/><path id="Tree45" serif:id="Tree" d="M4395.21,114.223l-6.424,0l12.923,19.723l-6.889,0l12.412,18.942l-7.231,0l13.729,20.717l-70.049,0l13.729,-20.717l-7.23,0l12.411,-18.942l-6.888,0l12.923,-19.723l-6.425,0c5.502,-6.368 11.003,-12.735 16.505,-19.103l16.504,19.103Z" style="fill:#37374a;"/><path id="Tree46" serif:id="Tree" d="M4466.35,91.312l-8.31,0l16.715,25.51l-8.91,0l16.053,24.499l-9.352,0l17.758,26.796l-90.602,0l17.758,-26.796l-9.352,0l16.052,-24.499l-8.909,0l16.715,-25.51l-8.31,0c7.116,-8.236 14.231,-16.472 21.347,-24.708l21.347,24.708Z" style="fill:#37374a;"/><path id="Tree47" serif:id="Tree" d="M4725.17,89.609l-8.31,0l16.715,25.51l-8.909,0l16.052,24.499l-9.352,0l17.758,26.796l-90.601,0l17.757,-26.796l-9.352,0l16.053,-24.499l-8.91,0l16.715,-25.51l-8.31,0c7.116,-8.236 14.232,-16.472 21.347,-24.707l21.347,24.707Z" style="fill:#37374a;"/><path id="Tree48" serif:id="Tree" d="M4326.6,67.893l-10.579,0l21.28,32.478l-11.343,0l20.438,31.191l-11.907,0l22.608,34.115l-115.35,0l22.608,-34.115l-11.906,0l20.437,-31.191l-11.343,0l21.281,-32.478l-10.58,0c9.059,-10.486 18.119,-20.972 27.178,-31.457l27.178,31.457Z" style="fill:#37374a;"/><path id="Tree49" serif:id="Tree" d="M4850.6,48.743l-12.651,0l25.448,38.838l-13.565,0l24.44,37.3l-14.238,0l27.036,40.796l-137.94,0l27.035,-40.796l-14.238,0l24.44,-37.3l-13.565,0l25.449,-38.838l-12.652,0c10.834,-12.539 21.667,-25.079 32.501,-37.618l32.5,37.618Z" style="fill:#37374a;"/><path id="Tree50" serif:id="Tree" d="M5196.9,66.422l-12.652,0l25.449,38.839l-13.565,0l24.44,37.299l-14.238,0l27.035,40.797l-137.94,0l27.036,-40.797l-14.238,0l24.44,-37.299l-13.565,0l25.448,-38.839l-12.651,0c10.833,-12.539 21.667,-25.078 32.5,-37.617l32.501,37.617Z" style="fill:#37374a;"/><path id="Tree51" serif:id="Tree" d="M5267.97,41.119l-8.191,0l16.476,41.615l-8.782,0l15.824,39.967l-9.219,0l17.504,43.713l-89.309,0l17.504,-43.713l-9.219,0l15.824,-39.967l-8.782,0l16.476,-41.615l-8.191,0c7.014,-13.435 14.028,-26.871 21.043,-40.307l21.042,40.307Z" style="fill:#37374a;"/><path id="Tree52" serif:id="Tree" d="M5028.27,114.223l-6.425,0l12.923,19.723l-6.888,0l12.411,18.942l-7.23,0l13.729,20.717l-70.049,0l13.729,-20.717l-7.231,0l12.412,-18.942l-6.889,0l12.923,-19.723l-6.424,0c5.501,-6.368 11.003,-12.735 16.504,-19.103l16.505,19.103Z" style="fill:#37374a;"/><path id="Tree53" serif:id="Tree" d="M5099.4,91.312l-8.31,0l16.715,25.51l-8.91,0l16.053,24.499l-9.352,0l17.757,26.796l-90.601,0l17.757,-26.796l-9.352,0l16.053,-24.499l-8.909,0l16.714,-25.51l-8.309,0c7.115,-8.236 14.231,-16.472 21.347,-24.708l21.347,24.708Z" style="fill:#37374a;"/><path id="Tree54" serif:id="Tree" d="M5358.23,89.609l-8.31,0l16.715,25.51l-8.91,0l16.053,24.499l-9.352,0l17.757,26.796l-90.601,0l17.758,-26.796l-9.352,0l16.052,-24.499l-8.909,0l16.715,-25.51l-8.31,0c7.116,-8.236 14.231,-16.472 21.347,-24.707l21.347,24.707Z" style="fill:#37374a;"/><path id="Tree55" serif:id="Tree" d="M4959.66,67.893l-10.58,0l21.281,32.478l-11.343,0l20.437,31.191l-11.906,0l22.608,34.115l-115.35,0l22.608,-34.115l-11.907,0l20.438,-31.191l-11.343,0l21.28,-32.478l-10.579,0c9.059,-10.486 18.118,-20.972 27.178,-31.457l27.178,31.457Z" style="fill:#37374a;"/><path id="Tree56" serif:id="Tree" d="M5755.25,49.763l-12.651,0l25.448,38.838l-13.565,0l24.44,37.299l-14.238,0l27.036,40.797l-137.94,0l27.035,-40.797l-14.238,0l24.44,-37.299l-13.565,0l25.449,-38.838l-12.652,0c10.834,-12.54 21.667,-25.079 32.501,-37.618l32.5,37.618Z" style="fill:#37374a;"/><path id="Tree57" serif:id="Tree" d="M5920.64,60.659l-6.425,0l12.923,35.219l-6.888,0l12.411,33.824l-7.23,0l13.729,36.995l-70.049,0l13.729,-36.995l-7.231,0l12.412,-33.824l-6.889,0l12.923,-35.219l-6.424,0c5.501,-11.371 11.003,-22.741 16.504,-34.112l16.505,34.112Z" style="fill:#37374a;"/><path id="Tree58" serif:id="Tree" d="M5848.75,86.856l-8.638,0l17.376,26.518l-9.262,0l16.687,25.468l-9.722,0l18.46,27.855l-94.183,0l18.459,-27.855l-9.721,0l16.687,-25.468l-9.262,0l17.376,-26.518l-8.639,0c7.397,-8.562 14.794,-17.123 22.191,-25.685l22.191,25.685Z" style="fill:#37374a;"/><path id="Tree59" serif:id="Tree" d="M5473.16,48.743l-12.652,0l25.448,38.838l-13.564,0l24.44,37.3l-14.239,0l27.036,40.796l-137.94,0l27.036,-40.796l-14.239,0l24.44,-37.3l-13.564,0l25.448,-38.838l-12.652,0c10.834,-12.539 21.667,-25.079 32.501,-37.618l32.501,37.618Z" style="fill:#37374a;"/><path id="Tree60" serif:id="Tree" d="M5635.1,59.64l-6.425,0l12.924,35.219l-6.889,0l12.411,33.823l-7.23,0l13.729,36.995l-70.049,0l13.729,-36.995l-7.23,0l12.411,-33.823l-6.889,0l12.924,-35.219l-6.425,0c5.501,-11.371 11.003,-22.742 16.504,-34.113l16.505,34.113Z" style="fill:#37374a;"/><path id="Tree61" serif:id="Tree" d="M5566.65,85.836l-8.639,0l17.376,26.519l-9.262,0l16.687,25.467l-9.721,0l18.459,27.855l-94.183,0l18.46,-27.855l-9.722,0l16.687,-25.467l-9.262,0l17.376,-26.519l-8.638,0c7.397,-8.561 14.794,-17.123 22.191,-25.684l22.191,25.684Z" style="fill:#37374a;"/><path id="Tree62" serif:id="Tree" d="M98.436,48.743l-12.652,0l25.448,38.838l-13.564,0l24.44,37.3l-14.239,0l27.036,40.796l-137.94,0l27.036,-40.796l-14.239,0l24.44,-37.3l-13.564,0l25.448,-38.838l-12.652,0c10.834,-12.539 21.667,-25.079 32.501,-37.618l32.501,37.618Z" style="fill:#37374a;"/><path id="Tree63" serif:id="Tree" d="M216.049,68.558l-10.974,0l22.074,33.166l-11.766,0l21.199,31.851l-12.35,0l23.45,34.837l-119.648,0l23.451,-34.837l-12.35,0l21.199,-31.851l-11.766,0l22.073,-33.166l-10.974,0c9.397,-10.707 18.794,-21.415 28.191,-32.122l28.191,32.122Z" style="fill:#37374a;"/><path id="Tree64" serif:id="Tree" d="M296.629,106.295l-7.321,0l14.726,19.723l-7.849,0l14.141,18.942l-8.238,0l15.643,20.717l-79.816,0l15.643,-20.717l-8.238,0l14.141,-18.942l-7.849,0l14.726,-19.723l-7.321,0c6.269,-6.368 12.537,-12.736 18.806,-19.103l18.806,19.103Z" style="fill:#37374a;"/></g></g></g></svg>