<?xml version="1.0" encoding="UTF-8" standalone="no"?>
<!DOCTYPE svg PUBLIC "-//W3C//DTD SVG 1.1//EN" "http://www.w3.org/Graphics/SVG/1.1/DTD/svg11.dtd">
<svg width="100%" height="100%" viewBox="0 0 150 115" version="1.1" xmlns="http://www.w3.org/2000/svg" xmlns:xlink="http://www.w3.org/1999/xlink" xml:space="preserve" xmlns:serif="http://www.serif.com/" style="fill-rule:evenodd;clip-rule:evenodd;stroke-linejoin:round;stroke-miterlimit:2;">
    <g transform="matrix(1,0,0,1,-1462,-2106)">
        <g id="Artboard5" transform="matrix(1,0,0,1,3.19444,921.543)">
            <rect x="1458.15" y="1185.34" width="151.273" height="114.258" style="fill:none;"/>
            <clipPath id="_clip1">
                <rect x="1458.15" y="1185.34" width="151.273" height="114.258"/>
            </clipPath>
            <g clip-path="url(#_clip1)">
                <g transform="matrix(0.206763,0,0,1.03762,1161.25,469.831)">
                    <rect x="1436.64" y="727.589" width="731.624" height="72.411" style="fill:rgb(55,55,74);"/>
                </g>
                <g transform="matrix(1,0,0,1,0.146625,0.335425)">
                    <g id="Tree" transform="matrix(0.19134,0,0,0.191292,1340.55,1122.76)">
                        <path d="M698.17,437.393L687.747,437.393L708.713,469.398L697.537,469.398L717.672,500.135L705.942,500.135L728.215,533.754L614.573,533.754L636.846,500.135L625.116,500.135L645.251,469.398L634.076,469.398L655.041,437.393L644.618,437.393C653.544,427.06 662.469,416.727 671.394,406.394L698.17,437.393Z" style="fill:rgb(55,55,74);"/>
                    </g>
                    <g id="Tree1" serif:id="Tree" transform="matrix(0.291313,0,0,0.291242,1300.45,1069.45)">
                        <path d="M698.17,437.393L687.747,437.393L708.713,469.398L697.537,469.398L717.672,500.135L705.942,500.135L728.215,533.754L614.573,533.754L636.846,500.135L625.116,500.135L645.251,469.398L634.076,469.398L655.041,437.393L644.618,437.393C653.544,427.06 662.469,416.727 671.394,406.394L698.17,437.393Z" style="fill:rgb(55,55,74);"/>
                    </g>
                    <g id="Tree2" serif:id="Tree" transform="matrix(0.291313,0,0,0.291242,1383.56,1073.69)">
                        <path d="M698.17,437.393L687.747,437.393L708.713,469.398L697.537,469.398L717.672,500.135L705.942,500.135L728.215,533.754L614.573,533.754L636.846,500.135L625.116,500.135L645.251,469.398L634.076,469.398L655.041,437.393L644.618,437.393C653.544,427.06 662.469,416.727 671.394,406.394L698.17,437.393Z" style="fill:rgb(55,55,74);"/>
                    </g>
                    <g id="Tree3" serif:id="Tree" transform="matrix(0.186421,0,0,0.310361,1473.66,1059.21)">
                        <path d="M698.17,437.393L687.747,437.393L708.713,469.398L697.537,469.398L717.672,500.135L705.942,500.135L728.215,533.754L614.573,533.754L636.846,500.135L625.116,500.135L645.251,469.398L634.076,469.398L655.041,437.393L644.618,437.393C653.544,427.06 662.469,416.727 671.394,406.394L698.17,437.393Z" style="fill:rgb(55,55,74);"/>
                    </g>
                    <g id="Tree4" serif:id="Tree" transform="matrix(0.147936,0,0,0.1479,1443.19,1147.86)">
                        <path d="M698.17,437.393L687.747,437.393L708.713,469.398L697.537,469.398L717.672,500.135L705.942,500.135L728.215,533.754L614.573,533.754L636.846,500.135L625.116,500.135L645.251,469.398L634.076,469.398L655.041,437.393L644.618,437.393C653.544,427.06 662.469,416.727 671.394,406.394L698.17,437.393Z" style="fill:rgb(55,55,74);"/>
                    </g>
                    <g id="Tree5" serif:id="Tree" transform="matrix(0.19134,0,0,0.191292,1429.96,1123.39)">
                        <path d="M698.17,437.393L687.747,437.393L708.713,469.398L697.537,469.398L717.672,500.135L705.942,500.135L728.215,533.754L614.573,533.754L636.846,500.135L625.116,500.135L645.251,469.398L634.076,469.398L655.041,437.393L644.618,437.393C653.544,427.06 662.469,416.727 671.394,406.394L698.17,437.393Z" style="fill:rgb(55,55,74);"/>
                    </g>
                    <g id="Tree6" serif:id="Tree" transform="matrix(0.243606,0,0,0.243546,1359.93,1094.91)">
                        <path d="M698.17,437.393L687.747,437.393L708.713,469.398L697.537,469.398L717.672,500.135L705.942,500.135L728.215,533.754L614.573,533.754L636.846,500.135L625.116,500.135L645.251,469.398L634.076,469.398L655.041,437.393L644.618,437.393C653.544,427.06 662.469,416.727 671.394,406.394L698.17,437.393Z" style="fill:rgb(55,55,74);"/>
                    </g>
                </g>
            </g>
        </g>
    </g>
</svg>
