<?xml version="1.0" encoding="UTF-8" standalone="no"?><!DOCTYPE svg PUBLIC "-//W3C//DTD SVG 1.1//EN" "http://www.w3.org/Graphics/SVG/1.1/DTD/svg11.dtd"><svg width="100%" height="100%" viewBox="0 0 325 288" version="1.1" xmlns="http://www.w3.org/2000/svg" xmlns:xlink="http://www.w3.org/1999/xlink" xml:space="preserve" xmlns:serif="http://www.serif.com/" style="fill-rule:evenodd;clip-rule:evenodd;stroke-linejoin:round;stroke-miterlimit:2;"><rect id="Tree-icon-outline" serif:id="Tree icon outline" x="3.4" y="0.61" width="321.598" height="285.369" style="fill:none;"/><g><path d="M238.311,109.69l-37.595,0l52.476,71.628l-52.476,0l67.357,91.939l-208.333,0l67.356,-91.939l-52.476,0l52.476,-71.628l-37.595,0c24.802,-33.853 49.604,-67.706 74.405,-101.56l74.405,101.56Z" style="fill:#37374a;"/><path d="M114.769,115.94l-25.268,0c-2.354,0 -4.509,-1.323 -5.574,-3.423c-1.065,-2.101 -0.859,-4.621 0.533,-6.521l74.404,-101.559c1.178,-1.607 3.05,-2.557 5.042,-2.557c1.992,0 3.865,0.95 5.042,2.557l74.405,101.559c1.391,1.9 1.597,4.42 0.532,6.521c-1.064,2.1 -3.219,3.423 -5.574,3.423l-25.268,0l45.191,61.684c0.574,0.844 0.985,1.746 1.138,2.762c0.576,3.822 -2.429,7.05 -6.18,7.182l-40.149,0l60.072,81.995c1.391,1.9 1.597,4.42 0.532,6.52c-1.065,2.1 -3.219,3.424 -5.574,3.424l-208.333,0c-2.355,0 -4.51,-1.324 -5.575,-3.424c-1.065,-2.1 -0.859,-4.62 0.533,-6.52l60.071,-81.995l-40.149,0c-1.02,-0.036 -1.99,-0.237 -2.901,-0.715c-3.423,-1.794 -4.251,-6.126 -2.14,-9.229l45.19,-61.684Zm85.947,-12.5l25.268,0l-62.078,-84.734l-62.078,84.734l25.268,0l0.439,0.016c3.727,0.392 6.497,3.817 5.664,7.584c-0.19,0.86 -0.569,1.62 -1.061,2.344l-45.191,61.684l40.149,0l0.439,0.015c3.727,0.392 6.497,3.817 5.664,7.584c-0.19,0.861 -0.569,1.62 -1.061,2.344l-60.072,81.996l183.68,0l-60.072,-81.996c-0.492,-0.724 -0.87,-1.483 -1.06,-2.344c-0.833,-3.767 1.936,-7.192 5.663,-7.584l0.439,-0.015l40.149,0l-45.191,-61.684c-0.492,-0.724 -0.87,-1.484 -1.06,-2.344c-0.833,-3.767 1.936,-7.192 5.663,-7.584l0.439,-0.016Z" style="fill:#37374a;"/></g></svg>